<svg width="52" height="52" viewBox="0 0 52 52" fill="none" xmlns="http://www.w3.org/2000/svg">
<rect width="52" height="52" rx="6" fill="white"/>
<path d="M15.37 37L10.75 28.84H8.77V37H4.57V16.06H12.43C14.05 16.06 15.43 16.35 16.57 16.93C17.71 17.49 18.56 18.26 19.12 19.24C19.7 20.2 19.99 21.28 19.99 22.48C19.99 23.86 19.59 25.11 18.79 26.23C17.99 27.33 16.8 28.09 15.22 28.51L20.23 37H15.37ZM8.77 25.69H12.28C13.42 25.69 14.27 25.42 14.83 24.88C15.39 24.32 15.67 23.55 15.67 22.57C15.67 21.61 15.39 20.87 14.83 20.35C14.27 19.81 13.42 19.54 12.28 19.54H8.77V25.69ZM46.6188 16.06V37H42.4188V23.38L36.8088 37H33.6288L27.9888 23.38V37H23.7888V16.06H28.5588L35.2188 31.63L41.8788 16.06H46.6188Z" fill="#3A42FD"/>
</svg>
